<svg id="visual" viewBox="0 0 900 600" width="900" height="600" xmlns="http://www.w3.org/2000/svg" xmlns:xlink="http://www.w3.org/1999/xlink" version="1.1"><rect x="0" y="0" width="900" height="600" fill="#001220"></rect><path d="M0 487L11.5 495C23 503 46 519 69 523.2C92 527.3 115 519.7 138.2 512.5C161.3 505.3 184.7 498.7 207.8 494.5C231 490.3 254 488.7 277 495.7C300 502.7 323 518.3 346 519.3C369 520.3 392 506.7 415.2 502.2C438.3 497.7 461.7 502.3 484.8 506.7C508 511 531 515 554 519.8C577 524.7 600 530.3 623 524.2C646 518 669 500 692.2 498.7C715.3 497.3 738.7 512.7 761.8 518.8C785 525 808 522 831 515C854 508 877 497 888.5 491.5L900 486L900 601L888.5 601C877 601 854 601 831 601C808 601 785 601 761.8 601C738.7 601 715.3 601 692.2 601C669 601 646 601 623 601C600 601 577 601 554 601C531 601 508 601 484.8 601C461.7 601 438.3 601 415.2 601C392 601 369 601 346 601C323 601 300 601 277 601C254 601 231 601 207.8 601C184.7 601 161.3 601 138.2 601C115 601 92 601 69 601C46 601 23 601 11.5 601L0 601Z" fill="#53c5b9"></path><path d="M0 556L11.5 552C23 548 46 540 69 531.7C92 523.3 115 514.7 138.2 518.3C161.3 522 184.7 538 207.8 546.5C231 555 254 556 277 549C300 542 323 527 346 519.7C369 512.3 392 512.7 415.2 517.2C438.3 521.7 461.7 530.3 484.8 531.8C508 533.3 531 527.7 554 523C577 518.3 600 514.7 623 512C646 509.3 669 507.7 692.2 513.3C715.3 519 738.7 532 761.8 537C785 542 808 539 831 537.5C854 536 877 536 888.5 536L900 536L900 601L888.5 601C877 601 854 601 831 601C808 601 785 601 761.8 601C738.7 601 715.3 601 692.2 601C669 601 646 601 623 601C600 601 577 601 554 601C531 601 508 601 484.8 601C461.7 601 438.3 601 415.2 601C392 601 369 601 346 601C323 601 300 601 277 601C254 601 231 601 207.8 601C184.7 601 161.3 601 138.2 601C115 601 92 601 69 601C46 601 23 601 11.5 601L0 601Z" fill="#5cd2c4"></path><path d="M0 528L11.5 528.5C23 529 46 530 69 537.5C92 545 115 559 138.2 560C161.3 561 184.7 549 207.8 545.8C231 542.7 254 548.3 277 554.8C300 561.3 323 568.7 346 572.5C369 576.3 392 576.7 415.2 572.3C438.3 568 461.7 559 484.8 557.8C508 556.7 531 563.3 554 566.7C577 570 600 570 623 570.8C646 571.7 669 573.3 692.2 570C715.3 566.7 738.7 558.3 761.8 550.8C785 543.3 808 536.7 831 536.5C854 536.3 877 542.7 888.5 545.8L900 549L900 601L888.5 601C877 601 854 601 831 601C808 601 785 601 761.8 601C738.7 601 715.3 601 692.2 601C669 601 646 601 623 601C600 601 577 601 554 601C531 601 508 601 484.8 601C461.7 601 438.3 601 415.2 601C392 601 369 601 346 601C323 601 300 601 277 601C254 601 231 601 207.8 601C184.7 601 161.3 601 138.2 601C115 601 92 601 69 601C46 601 23 601 11.5 601L0 601Z" fill="#66dece"></path><path d="M0 586L11.5 580.2C23 574.3 46 562.7 69 557.8C92 553 115 555 138.2 562.3C161.3 569.7 184.7 582.3 207.8 584.2C231 586 254 577 277 576C300 575 323 582 346 582.3C369 582.7 392 576.3 415.2 573.2C438.3 570 461.7 570 484.8 567C508 564 531 558 554 555.7C577 553.3 600 554.7 623 556C646 557.3 669 558.7 692.2 562.5C715.3 566.3 738.7 572.7 761.8 576.5C785 580.3 808 581.7 831 583C854 584.3 877 585.7 888.5 586.3L900 587L900 601L888.5 601C877 601 854 601 831 601C808 601 785 601 761.8 601C738.7 601 715.3 601 692.2 601C669 601 646 601 623 601C600 601 577 601 554 601C531 601 508 601 484.8 601C461.7 601 438.3 601 415.2 601C392 601 369 601 346 601C323 601 300 601 277 601C254 601 231 601 207.8 601C184.7 601 161.3 601 138.2 601C115 601 92 601 69 601C46 601 23 601 11.5 601L0 601Z" fill="#6febd8"></path></svg>