<svg xmlns="http://www.w3.org/2000/svg" width="256" height="256" viewBox="0 0 100 100"><rect width="100" height="100" rx="20" fill="#53c5b9"></rect><path fill="#ffffff" d="M7.81 64.90L7.81 64.90Q6.83 64.90 6.24 64.31Q5.65 63.72 5.65 62.74L5.65 62.74L5.65 37.26Q5.65 36.28 6.24 35.69Q6.83 35.10 7.81 35.10L7.81 35.10L24.08 35.10Q24.23 35.35 24.37 35.77Q24.52 36.18 24.52 36.67L24.52 36.67Q24.52 37.50 24.13 38.00Q23.74 38.48 23.00 38.48L23.00 38.48L9.62 38.48L9.62 47.94L22.56 47.94Q22.71 48.19 22.85 48.60Q23.00 49.02 23.00 49.51L23.00 49.51Q23.00 50.34 22.61 50.81Q22.22 51.27 21.48 51.27L21.48 51.27L9.62 51.27L9.62 61.56L24.32 61.56Q24.47 61.81 24.62 62.20Q24.76 62.59 24.76 63.13L24.76 63.13Q24.76 63.97 24.37 64.43Q23.98 64.90 23.25 64.90L23.25 64.90L7.81 64.90ZM40.64 54.26L35.69 54.26L35.69 64.80Q35.40 64.90 34.91 65.02Q34.42 65.14 33.83 65.14L33.83 65.14Q31.67 65.14 31.67 63.33L31.67 63.33L31.67 37.26Q31.67 36.48 32.07 36.06Q32.46 35.64 33.29 35.40L33.29 35.40Q34.71 34.96 36.75 34.76Q38.78 34.56 40.69 34.56L40.69 34.56Q46.91 34.56 49.78 37.19Q52.65 39.81 52.65 44.27L52.65 44.27Q52.65 48.82 49.71 51.54Q46.77 54.26 40.64 54.26L40.64 54.26ZM35.64 50.93L40.40 50.93Q44.32 50.93 46.47 49.31Q48.63 47.70 48.63 44.32L48.63 44.32Q48.63 40.98 46.55 39.44Q44.46 37.90 40.59 37.90L40.59 37.90Q39.27 37.90 37.97 38.02Q36.67 38.14 35.64 38.34L35.64 38.34L35.64 50.93ZM63.47 64.80L63.47 64.80Q63.23 64.90 62.74 65.02Q62.25 65.14 61.66 65.14L61.66 65.14Q59.51 65.14 59.51 63.33L59.51 63.33L59.51 35.20Q59.75 35.10 60.27 34.98Q60.78 34.86 61.37 34.86L61.37 34.86Q63.47 34.86 63.47 36.67L63.47 36.67L63.47 64.80ZM94.05 38.39L94.05 38.39Q94.05 39.07 93.63 39.56Q93.22 40.05 92.68 40.30L92.68 40.30Q91.41 39.42 89.69 38.63Q87.97 37.85 85.23 37.85L85.23 37.85Q82.98 37.85 81.07 38.63Q79.16 39.42 77.73 40.94Q76.31 42.45 75.50 44.76Q74.70 47.06 74.70 50.05L74.70 50.05Q74.70 53.09 75.48 55.34Q76.26 57.59 77.66 59.11Q79.06 60.63 81.02 61.39Q82.98 62.15 85.38 62.15L85.38 62.15Q87.93 62.15 89.81 61.44Q91.70 60.73 92.97 59.75L92.97 59.75Q93.46 59.95 93.90 60.46Q94.34 60.98 94.34 61.66L94.34 61.66Q94.34 62.69 93.17 63.52L93.17 63.52Q92.04 64.31 90.08 64.92Q88.12 65.53 85.08 65.53L85.08 65.53Q82.00 65.53 79.35 64.55Q76.70 63.57 74.77 61.64Q72.83 59.70 71.71 56.81Q70.58 53.92 70.58 50.05L70.58 50.05Q70.58 46.18 71.73 43.26Q72.88 40.35 74.84 38.39Q76.80 36.43 79.42 35.45Q82.05 34.47 84.94 34.47L84.94 34.47Q86.95 34.47 88.64 34.81Q90.33 35.15 91.53 35.72Q92.73 36.28 93.39 36.99Q94.05 37.70 94.05 38.39Z"></path></svg>